<mxfile host="65bd71144e">
    <diagram id="UqjzjKch3L4LzaeZdQYj" name="Page-1">
        <mxGraphModel dx="821" dy="567" grid="1" gridSize="10" guides="1" tooltips="1" connect="1" arrows="1" fold="1" page="1" pageScale="3" pageWidth="827" pageHeight="1169" math="0" shadow="0">
            <root>
                <mxCell id="0"/>
                <mxCell id="1" parent="0"/>
                <mxCell id="2" value="START" style="rounded=1;whiteSpace=wrap;html=1;fillColor=#60a917;strokeColor=#2D7600;fontColor=#ffffff;" parent="1" vertex="1">
                    <mxGeometry x="1355" y="290" width="120" height="60" as="geometry"/>
                </mxCell>
                <mxCell id="3" value="" style="endArrow=classic;html=1;exitX=0.5;exitY=1;exitDx=0;exitDy=0;" parent="1" source="2" edge="1">
                    <mxGeometry width="50" height="50" relative="1" as="geometry">
                        <mxPoint x="1385" y="510" as="sourcePoint"/>
                        <mxPoint x="1415" y="390" as="targetPoint"/>
                    </mxGeometry>
                </mxCell>
                <mxCell id="4" value="User inputs integer" style="rounded=0;whiteSpace=wrap;html=1;" parent="1" vertex="1">
                    <mxGeometry x="1355" y="390" width="120" height="60" as="geometry"/>
                </mxCell>
                <mxCell id="6" value="" style="endArrow=classic;html=1;exitX=0.5;exitY=1;exitDx=0;exitDy=0;" parent="1" source="4" edge="1">
                    <mxGeometry width="50" height="50" relative="1" as="geometry">
                        <mxPoint x="1385" y="510" as="sourcePoint"/>
                        <mxPoint x="1415" y="490" as="targetPoint"/>
                    </mxGeometry>
                </mxCell>
                <mxCell id="7" value="&lt;div&gt;&lt;span&gt;&amp;nbsp; &amp;nbsp; &amp;nbsp;Is Value&amp;nbsp;&lt;/span&gt;&lt;span&gt;≥&amp;nbsp;&lt;/span&gt;&lt;span&gt;than 100?&lt;/span&gt;&lt;/div&gt;" style="rhombus;whiteSpace=wrap;html=1;align=center;" parent="1" vertex="1">
                    <mxGeometry x="1350" y="490" width="130" height="110" as="geometry"/>
                </mxCell>
                <mxCell id="10" value="" style="endArrow=classic;html=1;exitX=0;exitY=0.5;exitDx=0;exitDy=0;" parent="1" source="7" target="11" edge="1">
                    <mxGeometry width="50" height="50" relative="1" as="geometry">
                        <mxPoint x="1465" y="650" as="sourcePoint"/>
                        <mxPoint x="1295" y="545" as="targetPoint"/>
                    </mxGeometry>
                </mxCell>
                <mxCell id="11" value="&lt;font color=&quot;#ffffff&quot;&gt;N&amp;nbsp;&lt;span style=&quot;margin: 0px ; padding: 0px ; border: 0px ; outline: 0px ; vertical-align: baseline ; background: transparent ; font-family: &amp;#34;wfont_093ca4_2037fd65942642b0baf9d5422fcdb363&amp;#34; , &amp;#34;wf_2037fd65942642b0baf9d5422&amp;#34; , &amp;#34;orig_nunito_sans_regular&amp;#34; ; font-size: 18px&quot;&gt;÷ &lt;/span&gt;&lt;span style=&quot;margin: 0px ; padding: 0px ; border: 0px ; outline: 0px ; vertical-align: baseline ; background: transparent&quot;&gt;&lt;font style=&quot;font-size: 12px&quot;&gt;100&lt;/font&gt;&lt;/span&gt;&lt;/font&gt;" style="rounded=0;whiteSpace=wrap;html=1;" parent="1" vertex="1">
                    <mxGeometry x="1145" y="515" width="120" height="60" as="geometry"/>
                </mxCell>
                <mxCell id="12" value="" style="endArrow=classic;html=1;exitX=0.406;exitY=0.994;exitDx=0;exitDy=0;exitPerimeter=0;" parent="1" source="11" target="13" edge="1">
                    <mxGeometry width="50" height="50" relative="1" as="geometry">
                        <mxPoint x="1325" y="740" as="sourcePoint"/>
                        <mxPoint x="1194" y="630" as="targetPoint"/>
                    </mxGeometry>
                </mxCell>
                <mxCell id="13" value="integer = Q,&amp;nbsp;&lt;br&gt;a = amount of 100€&amp;nbsp;" style="rounded=0;whiteSpace=wrap;html=1;" parent="1" vertex="1">
                    <mxGeometry x="1132.5" y="590" width="120" height="60" as="geometry"/>
                </mxCell>
                <mxCell id="16" value="" style="endArrow=classic;html=1;exitX=0.5;exitY=1;exitDx=0;exitDy=0;" parent="1" edge="1">
                    <mxGeometry width="50" height="50" relative="1" as="geometry">
                        <mxPoint x="1194" y="865" as="sourcePoint"/>
                        <mxPoint x="1194" y="885" as="targetPoint"/>
                    </mxGeometry>
                </mxCell>
                <mxCell id="19" value="M&amp;nbsp;≥&amp;nbsp; 50?" style="rhombus;whiteSpace=wrap;html=1;" parent="1" vertex="1">
                    <mxGeometry x="1132.5" y="885" width="124" height="70" as="geometry"/>
                </mxCell>
                <mxCell id="21" value="N - (100 x Q) = M" style="rounded=0;whiteSpace=wrap;html=1;" parent="1" vertex="1">
                    <mxGeometry x="1130.5" y="800" width="120" height="60" as="geometry"/>
                </mxCell>
                <mxCell id="22" value="" style="endArrow=classic;html=1;exitX=0.5;exitY=1;exitDx=0;exitDy=0;" parent="1" source="19" target="23" edge="1">
                    <mxGeometry width="50" height="50" relative="1" as="geometry">
                        <mxPoint x="1315.5" y="955" as="sourcePoint"/>
                        <mxPoint x="1194.5" y="975" as="targetPoint"/>
                    </mxGeometry>
                </mxCell>
                <mxCell id="23" value="&lt;font style=&quot;font-size: 12px&quot;&gt;M&amp;nbsp;&lt;span style=&quot;color: rgb(255 , 255 , 255)&quot;&gt;÷ 50&lt;/span&gt;&lt;/font&gt;&lt;br&gt;&amp;nbsp;" style="rounded=0;whiteSpace=wrap;html=1;" parent="1" vertex="1">
                    <mxGeometry x="1132.5" y="979.5" width="120" height="60" as="geometry"/>
                </mxCell>
                <mxCell id="25" value="M - (50 x P) = L" style="rounded=0;whiteSpace=wrap;html=1;" parent="1" vertex="1">
                    <mxGeometry x="1136.5" y="1240" width="120" height="60" as="geometry"/>
                </mxCell>
                <mxCell id="26" value="L&amp;nbsp;≥&amp;nbsp; 20?" style="rhombus;whiteSpace=wrap;html=1;" parent="1" vertex="1">
                    <mxGeometry x="1140" y="1300" width="124" height="70" as="geometry"/>
                </mxCell>
                <mxCell id="27" value="&lt;font style=&quot;font-size: 12px&quot;&gt;L&amp;nbsp;&lt;span style=&quot;color: rgb(255 , 255 , 255)&quot;&gt;÷ 20&lt;/span&gt;&lt;br&gt;&amp;nbsp;&lt;/font&gt;" style="rounded=0;whiteSpace=wrap;html=1;" parent="1" vertex="1">
                    <mxGeometry x="1144" y="1400" width="120" height="60" as="geometry"/>
                </mxCell>
                <mxCell id="28" value="integer = R,&lt;br&gt;c = amount od 20€" style="rounded=0;whiteSpace=wrap;html=1;" parent="1" vertex="1">
                    <mxGeometry x="1144" y="1490" width="120" height="60" as="geometry"/>
                </mxCell>
                <mxCell id="31" value="L - (20 x R) = K" style="rounded=0;whiteSpace=wrap;html=1;" parent="1" vertex="1">
                    <mxGeometry x="1142" y="1740" width="120" height="60" as="geometry"/>
                </mxCell>
                <mxCell id="193" value="K &amp;gt; 10?" style="rhombus;whiteSpace=wrap;html=1;" parent="1" vertex="1">
                    <mxGeometry x="1140" y="1849.57" width="124" height="70" as="geometry"/>
                </mxCell>
                <mxCell id="194" value="&lt;font style=&quot;font-size: 12px&quot;&gt;K&amp;nbsp;&lt;span style=&quot;color: rgb(255 , 255 , 255)&quot;&gt;÷ 10&lt;/span&gt;&lt;br&gt;&amp;nbsp;&lt;/font&gt;" style="rounded=0;whiteSpace=wrap;html=1;" parent="1" vertex="1">
                    <mxGeometry x="1144" y="1935.57" width="120" height="60" as="geometry"/>
                </mxCell>
                <mxCell id="199" value="N = M" style="whiteSpace=wrap;html=1;aspect=fixed;" parent="1" vertex="1">
                    <mxGeometry x="1370.5" y="780" width="70" height="70" as="geometry"/>
                </mxCell>
                <mxCell id="200" value="" style="endArrow=classic;html=1;exitX=0.5;exitY=1;exitDx=0;exitDy=0;entryX=0.627;entryY=-0.037;entryDx=0;entryDy=0;entryPerimeter=0;" parent="1" source="7" target="199" edge="1">
                    <mxGeometry width="50" height="50" relative="1" as="geometry">
                        <mxPoint x="1515" y="740" as="sourcePoint"/>
                        <mxPoint x="1418" y="660" as="targetPoint"/>
                    </mxGeometry>
                </mxCell>
                <mxCell id="203" value="" style="endArrow=classic;html=1;exitX=1;exitY=0.5;exitDx=0;exitDy=0;entryX=0.5;entryY=0;entryDx=0;entryDy=0;" parent="1" source="19" target="204" edge="1">
                    <mxGeometry width="50" height="50" relative="1" as="geometry">
                        <mxPoint x="1515.5" y="1025" as="sourcePoint"/>
                        <mxPoint x="1425.5" y="920" as="targetPoint"/>
                        <Array as="points">
                            <mxPoint x="1405.5" y="920"/>
                        </Array>
                    </mxGeometry>
                </mxCell>
                <mxCell id="204" value="M = L" style="whiteSpace=wrap;html=1;aspect=fixed;" parent="1" vertex="1">
                    <mxGeometry x="1370.5" y="975" width="74.5" height="74.5" as="geometry"/>
                </mxCell>
                <mxCell id="205" value="" style="endArrow=classic;html=1;exitX=0.5;exitY=1;exitDx=0;exitDy=0;entryX=0.5;entryY=0;entryDx=0;entryDy=0;" parent="1" source="204" edge="1" target="26">
                    <mxGeometry width="50" height="50" relative="1" as="geometry">
                        <mxPoint x="1464.7499999999995" y="1010" as="sourcePoint"/>
                        <mxPoint x="1260" y="1330" as="targetPoint"/>
                        <Array as="points">
                            <mxPoint x="1400" y="1300"/>
                        </Array>
                    </mxGeometry>
                </mxCell>
                <mxCell id="207" value="" style="endArrow=classic;html=1;exitX=1;exitY=0.5;exitDx=0;exitDy=0;entryX=0.5;entryY=0;entryDx=0;entryDy=0;" parent="1" source="26" target="208" edge="1">
                    <mxGeometry width="50" height="50" relative="1" as="geometry">
                        <mxPoint x="1525" y="1655.57" as="sourcePoint"/>
                        <mxPoint x="1325" y="1615.57" as="targetPoint"/>
                        <Array as="points"/>
                    </mxGeometry>
                </mxCell>
                <mxCell id="208" value="L = K" style="whiteSpace=wrap;html=1;aspect=fixed;" parent="1" vertex="1">
                    <mxGeometry x="1445" y="1340" width="70" height="70" as="geometry"/>
                </mxCell>
                <mxCell id="209" value="" style="endArrow=classic;html=1;exitX=0.5;exitY=1;exitDx=0;exitDy=0;entryX=0.5;entryY=0;entryDx=0;entryDy=0;" parent="1" source="208" target="193" edge="1">
                    <mxGeometry width="50" height="50" relative="1" as="geometry">
                        <mxPoint x="1525" y="1655.57" as="sourcePoint"/>
                        <mxPoint x="1335" y="1865.57" as="targetPoint"/>
                        <Array as="points">
                            <mxPoint x="1410" y="1855.57"/>
                        </Array>
                    </mxGeometry>
                </mxCell>
                <mxCell id="212" value="" style="endArrow=classic;html=1;entryX=1;entryY=0.5;entryDx=0;entryDy=0;exitX=1;exitY=0.5;exitDx=0;exitDy=0;" parent="1" source="193" target="213" edge="1">
                    <mxGeometry width="50" height="50" relative="1" as="geometry">
                        <mxPoint x="1425" y="1895.57" as="sourcePoint"/>
                        <mxPoint x="1266" y="2185.57" as="targetPoint"/>
                        <Array as="points">
                            <mxPoint x="1425" y="1884.57"/>
                            <mxPoint x="1425" y="2245.57"/>
                        </Array>
                    </mxGeometry>
                </mxCell>
                <mxCell id="213" value="END" style="rounded=1;whiteSpace=wrap;html=1;fillColor=#1ba1e2;strokeColor=#006EAF;fontColor=#ffffff;" parent="1" vertex="1">
                    <mxGeometry x="1148" y="2490" width="120" height="60" as="geometry"/>
                </mxCell>
                <mxCell id="214" value="withdraw all notes at once" style="rounded=0;whiteSpace=wrap;html=1;" parent="1" vertex="1">
                    <mxGeometry x="1145" y="2320" width="120" height="100" as="geometry"/>
                </mxCell>
                <mxCell id="217" value="" style="endArrow=classic;html=1;exitX=0;exitY=0.5;exitDx=0;exitDy=0;entryX=0.5;entryY=0;entryDx=0;entryDy=0;" parent="1" target="19" edge="1">
                    <mxGeometry width="50" height="50" relative="1" as="geometry">
                        <mxPoint x="1370.5" y="820" as="sourcePoint"/>
                        <mxPoint x="1305.5" y="895" as="targetPoint"/>
                        <Array as="points">
                            <mxPoint x="1305.5" y="820"/>
                            <mxPoint x="1305.5" y="885"/>
                        </Array>
                    </mxGeometry>
                </mxCell>
                <mxCell id="223" value="" style="endArrow=classic;html=1;exitX=0.5;exitY=1;exitDx=0;exitDy=0;entryX=0.487;entryY=-0.061;entryDx=0;entryDy=0;entryPerimeter=0;" parent="1" source="26" target="27" edge="1">
                    <mxGeometry width="50" height="50" relative="1" as="geometry">
                        <mxPoint x="1285" y="1705.57" as="sourcePoint"/>
                        <mxPoint x="1335" y="1655.57" as="targetPoint"/>
                    </mxGeometry>
                </mxCell>
                <mxCell id="224" value="" style="endArrow=classic;html=1;exitX=0.468;exitY=1.005;exitDx=0;exitDy=0;exitPerimeter=0;" parent="1" source="27" edge="1">
                    <mxGeometry width="50" height="50" relative="1" as="geometry">
                        <mxPoint x="1285" y="1755.57" as="sourcePoint"/>
                        <mxPoint x="1199" y="1490" as="targetPoint"/>
                    </mxGeometry>
                </mxCell>
                <mxCell id="225" value="" style="endArrow=classic;html=1;exitX=0.5;exitY=1;exitDx=0;exitDy=0;" parent="1" source="28" edge="1">
                    <mxGeometry width="50" height="50" relative="1" as="geometry">
                        <mxPoint x="1285" y="1755.57" as="sourcePoint"/>
                        <mxPoint x="1203" y="1580" as="targetPoint"/>
                    </mxGeometry>
                </mxCell>
                <mxCell id="226" value="" style="endArrow=classic;html=1;exitX=0.5;exitY=1;exitDx=0;exitDy=0;entryX=0.531;entryY=-0.008;entryDx=0;entryDy=0;entryPerimeter=0;" parent="1" source="31" target="193" edge="1">
                    <mxGeometry width="50" height="50" relative="1" as="geometry">
                        <mxPoint x="1285" y="1955.57" as="sourcePoint"/>
                        <mxPoint x="1335" y="1905.57" as="targetPoint"/>
                    </mxGeometry>
                </mxCell>
                <mxCell id="227" value="" style="endArrow=classic;html=1;exitX=0.5;exitY=1;exitDx=0;exitDy=0;entryX=0.489;entryY=-0.063;entryDx=0;entryDy=0;entryPerimeter=0;" parent="1" source="193" target="194" edge="1">
                    <mxGeometry width="50" height="50" relative="1" as="geometry">
                        <mxPoint x="1285" y="1955.57" as="sourcePoint"/>
                        <mxPoint x="1335" y="1905.57" as="targetPoint"/>
                    </mxGeometry>
                </mxCell>
                <mxCell id="232" value="" style="endArrow=classic;html=1;entryX=0.517;entryY=-0.064;entryDx=0;entryDy=0;entryPerimeter=0;" parent="1" edge="1">
                    <mxGeometry width="50" height="50" relative="1" as="geometry">
                        <mxPoint x="1203.87" y="2230" as="sourcePoint"/>
                        <mxPoint x="1203.4099999999999" y="2316.16" as="targetPoint"/>
                    </mxGeometry>
                </mxCell>
                <mxCell id="233" value="" style="endArrow=classic;html=1;exitX=0.5;exitY=1;exitDx=0;exitDy=0;entryX=0.458;entryY=-0.036;entryDx=0;entryDy=0;entryPerimeter=0;" parent="1" source="214" target="213" edge="1">
                    <mxGeometry width="50" height="50" relative="1" as="geometry">
                        <mxPoint x="1316.5" y="2750" as="sourcePoint"/>
                        <mxPoint x="1366.5" y="2700" as="targetPoint"/>
                    </mxGeometry>
                </mxCell>
                <mxCell id="235" value="No" style="text;html=1;strokeColor=none;fillColor=none;align=center;verticalAlign=middle;whiteSpace=wrap;rounded=0;" parent="1" vertex="1">
                    <mxGeometry x="1405" y="620" width="40" height="20" as="geometry"/>
                </mxCell>
                <mxCell id="236" value="Yes" style="text;html=1;strokeColor=none;fillColor=none;align=center;verticalAlign=middle;whiteSpace=wrap;rounded=0;" parent="1" vertex="1">
                    <mxGeometry x="1295" y="515" width="40" height="20" as="geometry"/>
                </mxCell>
                <mxCell id="238" value="Yes" style="text;html=1;strokeColor=none;fillColor=none;align=center;verticalAlign=middle;whiteSpace=wrap;rounded=0;" parent="1" vertex="1">
                    <mxGeometry x="1155.5" y="955" width="40" height="20" as="geometry"/>
                </mxCell>
                <mxCell id="239" value="No" style="text;html=1;strokeColor=none;fillColor=none;align=center;verticalAlign=middle;whiteSpace=wrap;rounded=0;" parent="1" vertex="1">
                    <mxGeometry x="1315.5" y="895" width="40" height="20" as="geometry"/>
                </mxCell>
                <mxCell id="243" value="Yes" style="text;html=1;strokeColor=none;fillColor=none;align=center;verticalAlign=middle;whiteSpace=wrap;rounded=0;" parent="1" vertex="1">
                    <mxGeometry x="1155" y="1370" width="40" height="20" as="geometry"/>
                </mxCell>
                <mxCell id="244" value="No" style="text;html=1;strokeColor=none;fillColor=none;align=center;verticalAlign=middle;whiteSpace=wrap;rounded=0;" parent="1" vertex="1">
                    <mxGeometry x="1285" y="1320" width="40" height="20" as="geometry"/>
                </mxCell>
                <mxCell id="245" value="Yes" style="text;html=1;strokeColor=none;fillColor=none;align=center;verticalAlign=middle;whiteSpace=wrap;rounded=0;" parent="1" vertex="1">
                    <mxGeometry x="1165" y="1915.57" width="40" height="20" as="geometry"/>
                </mxCell>
                <mxCell id="246" value="No" style="text;html=1;strokeColor=none;fillColor=none;align=center;verticalAlign=middle;whiteSpace=wrap;rounded=0;" parent="1" vertex="1">
                    <mxGeometry x="1325" y="1864.57" width="40" height="20" as="geometry"/>
                </mxCell>
                <mxCell id="247" value="withdraw Q notes of 100 €" style="rounded=0;whiteSpace=wrap;html=1;" vertex="1" parent="1">
                    <mxGeometry x="1130.5" y="730" width="120" height="60" as="geometry"/>
                </mxCell>
                <mxCell id="249" value="" style="endArrow=classic;html=1;exitX=0.5;exitY=1;exitDx=0;exitDy=0;entryX=0.5;entryY=0;entryDx=0;entryDy=0;" edge="1" parent="1" source="247" target="21">
                    <mxGeometry width="50" height="50" relative="1" as="geometry">
                        <mxPoint x="1300" y="740" as="sourcePoint"/>
                        <mxPoint x="1350" y="690" as="targetPoint"/>
                    </mxGeometry>
                </mxCell>
                <mxCell id="253" style="edgeStyle=orthogonalEdgeStyle;rounded=0;orthogonalLoop=1;jettySize=auto;html=1;exitX=0;exitY=0.5;exitDx=0;exitDy=0;" edge="1" parent="1" source="251" target="254">
                    <mxGeometry relative="1" as="geometry">
                        <mxPoint x="990" y="690.3333333333335" as="targetPoint"/>
                    </mxGeometry>
                </mxCell>
                <mxCell id="251" value="&lt;span&gt;Q ≥ a?&lt;/span&gt;" style="rhombus;whiteSpace=wrap;html=1;" vertex="1" parent="1">
                    <mxGeometry x="1136.5" y="650" width="99.5" height="80" as="geometry"/>
                </mxCell>
                <mxCell id="254" value="withdraw a notes of 100€ and&amp;nbsp;&lt;br&gt;N - a = M" style="rounded=0;whiteSpace=wrap;html=1;" vertex="1" parent="1">
                    <mxGeometry x="860" y="660.0033333333334" width="120" height="60" as="geometry"/>
                </mxCell>
                <mxCell id="255" value="" style="endArrow=classic;html=1;exitX=0.5;exitY=1;exitDx=0;exitDy=0;" edge="1" parent="1" source="254">
                    <mxGeometry width="50" height="50" relative="1" as="geometry">
                        <mxPoint x="1150" y="970" as="sourcePoint"/>
                        <mxPoint x="1130" y="920" as="targetPoint"/>
                        <Array as="points">
                            <mxPoint x="920" y="920"/>
                        </Array>
                    </mxGeometry>
                </mxCell>
                <mxCell id="256" value="integer = P,&amp;nbsp;&lt;br&gt;b = amount of 50€&amp;nbsp;" style="rounded=0;whiteSpace=wrap;html=1;" vertex="1" parent="1">
                    <mxGeometry x="1132.5" y="1049.5" width="120" height="60" as="geometry"/>
                </mxCell>
                <mxCell id="257" value="&lt;span&gt;P ≥ b?&lt;/span&gt;" style="rhombus;whiteSpace=wrap;html=1;" vertex="1" parent="1">
                    <mxGeometry x="1142.75" y="1109.5" width="99.5" height="80" as="geometry"/>
                </mxCell>
                <mxCell id="258" value="withdraw b notes of 50€ and&amp;nbsp;&lt;br&gt;M - b = L" style="rounded=0;whiteSpace=wrap;html=1;" vertex="1" parent="1">
                    <mxGeometry x="860" y="1150.0033333333336" width="120" height="60" as="geometry"/>
                </mxCell>
                <mxCell id="259" value="" style="endArrow=classic;html=1;exitX=0;exitY=0.5;exitDx=0;exitDy=0;entryX=1;entryY=0.5;entryDx=0;entryDy=0;" edge="1" parent="1" source="257" target="258">
                    <mxGeometry width="50" height="50" relative="1" as="geometry">
                        <mxPoint x="1160" y="1040" as="sourcePoint"/>
                        <mxPoint x="1210" y="990" as="targetPoint"/>
                    </mxGeometry>
                </mxCell>
                <mxCell id="260" value="" style="endArrow=classic;html=1;exitX=0.434;exitY=1.042;exitDx=0;exitDy=0;exitPerimeter=0;entryX=0;entryY=0.5;entryDx=0;entryDy=0;" edge="1" parent="1" source="258" target="26">
                    <mxGeometry width="50" height="50" relative="1" as="geometry">
                        <mxPoint x="1160" y="1180" as="sourcePoint"/>
                        <mxPoint x="920" y="1370" as="targetPoint"/>
                        <Array as="points">
                            <mxPoint x="912" y="1340"/>
                        </Array>
                    </mxGeometry>
                </mxCell>
                <mxCell id="261" value="withdraw P notes of 50 €" style="rounded=0;whiteSpace=wrap;html=1;" vertex="1" parent="1">
                    <mxGeometry x="1140" y="1180" width="120" height="60" as="geometry"/>
                </mxCell>
                <mxCell id="263" value="R ≥&amp;nbsp; c?" style="rhombus;whiteSpace=wrap;html=1;" vertex="1" parent="1">
                    <mxGeometry x="1144" y="1580" width="124" height="70" as="geometry"/>
                </mxCell>
                <mxCell id="264" value="withdraw R notes of 20 €" style="rounded=0;whiteSpace=wrap;html=1;" vertex="1" parent="1">
                    <mxGeometry x="1148" y="1650" width="120" height="60" as="geometry"/>
                </mxCell>
                <mxCell id="265" value="withdraw c notes of 20€ and&amp;nbsp;&lt;br&gt;L - c = K" style="rounded=0;whiteSpace=wrap;html=1;" vertex="1" parent="1">
                    <mxGeometry x="870" y="1585.0033333333336" width="120" height="60" as="geometry"/>
                </mxCell>
                <mxCell id="266" value="" style="endArrow=classic;html=1;exitX=0;exitY=0.5;exitDx=0;exitDy=0;entryX=1;entryY=0.5;entryDx=0;entryDy=0;" edge="1" parent="1" source="263" target="265">
                    <mxGeometry width="50" height="50" relative="1" as="geometry">
                        <mxPoint x="1160" y="1670" as="sourcePoint"/>
                        <mxPoint x="1210" y="1620" as="targetPoint"/>
                    </mxGeometry>
                </mxCell>
                <mxCell id="267" value="" style="endArrow=classic;html=1;exitX=0.414;exitY=0.992;exitDx=0;exitDy=0;exitPerimeter=0;entryX=0;entryY=0.5;entryDx=0;entryDy=0;" edge="1" parent="1" source="265" target="193">
                    <mxGeometry width="50" height="50" relative="1" as="geometry">
                        <mxPoint x="1160" y="1670" as="sourcePoint"/>
                        <mxPoint x="920" y="1900" as="targetPoint"/>
                        <Array as="points">
                            <mxPoint x="920" y="1885"/>
                        </Array>
                    </mxGeometry>
                </mxCell>
                <mxCell id="268" value="integer = T,&lt;br&gt;d = amount of 10€" style="rounded=0;whiteSpace=wrap;html=1;" vertex="1" parent="1">
                    <mxGeometry x="1144" y="2020" width="120" height="60" as="geometry"/>
                </mxCell>
                <mxCell id="270" value="T ≥&amp;nbsp; d?" style="rhombus;whiteSpace=wrap;html=1;" vertex="1" parent="1">
                    <mxGeometry x="1144" y="2090" width="124" height="70" as="geometry"/>
                </mxCell>
                <mxCell id="271" value="withdraw T notes of 10€" style="rounded=0;whiteSpace=wrap;html=1;" vertex="1" parent="1">
                    <mxGeometry x="1148" y="2170" width="120" height="60" as="geometry"/>
                </mxCell>
                <mxCell id="272" value="" style="endArrow=classic;html=1;" edge="1" parent="1">
                    <mxGeometry width="50" height="50" relative="1" as="geometry">
                        <mxPoint x="1145" y="2125" as="sourcePoint"/>
                        <mxPoint x="970" y="2125" as="targetPoint"/>
                    </mxGeometry>
                </mxCell>
                <mxCell id="273" value="display N€ is not possible, I don't have enough 10€ at the moment." style="shape=callout;whiteSpace=wrap;html=1;perimeter=calloutPerimeter;" vertex="1" parent="1">
                    <mxGeometry x="820" y="2090" width="150" height="130" as="geometry"/>
                </mxCell>
                <mxCell id="274" value="" style="endArrow=classic;html=1;exitX=0;exitY=0;exitDx=75;exitDy=130;exitPerimeter=0;entryX=0;entryY=0.5;entryDx=0;entryDy=0;" edge="1" parent="1" source="273" target="213">
                    <mxGeometry width="50" height="50" relative="1" as="geometry">
                        <mxPoint x="1160" y="2320" as="sourcePoint"/>
                        <mxPoint x="1210" y="2270" as="targetPoint"/>
                        <Array as="points">
                            <mxPoint x="890" y="2520"/>
                        </Array>
                    </mxGeometry>
                </mxCell>
                <mxCell id="275" value="Send Bank Information to refill 100€ notes" style="shape=callout;whiteSpace=wrap;html=1;perimeter=calloutPerimeter;" vertex="1" parent="1">
                    <mxGeometry x="680" y="770" width="120" height="80" as="geometry"/>
                </mxCell>
                <mxCell id="276" value="Send Bank Information to refill 20€ notes" style="shape=callout;whiteSpace=wrap;html=1;perimeter=calloutPerimeter;" vertex="1" parent="1">
                    <mxGeometry x="690" y="1700" width="120" height="80" as="geometry"/>
                </mxCell>
                <mxCell id="277" value="Send Bank Information to refill 10€ notes" style="shape=callout;whiteSpace=wrap;html=1;perimeter=calloutPerimeter;" vertex="1" parent="1">
                    <mxGeometry x="700" y="2310" width="120" height="80" as="geometry"/>
                </mxCell>
                <mxCell id="278" value="Send Bank Information to refill 50€ notes" style="shape=callout;whiteSpace=wrap;html=1;perimeter=calloutPerimeter;" vertex="1" parent="1">
                    <mxGeometry x="690" y="1220" width="120" height="80" as="geometry"/>
                </mxCell>
                <mxCell id="279" value="" style="endArrow=classic;html=1;exitX=0;exitY=0;exitDx=0;exitDy=50;exitPerimeter=0;entryX=0.5;entryY=0;entryDx=0;entryDy=0;entryPerimeter=0;" edge="1" parent="1" source="273" target="277">
                    <mxGeometry width="50" height="50" relative="1" as="geometry">
                        <mxPoint x="730" y="2300" as="sourcePoint"/>
                        <mxPoint x="780" y="2250" as="targetPoint"/>
                        <Array as="points">
                            <mxPoint x="760" y="2140"/>
                        </Array>
                    </mxGeometry>
                </mxCell>
                <mxCell id="280" value="" style="endArrow=classic;html=1;exitX=0;exitY=0.5;exitDx=0;exitDy=0;entryX=0.5;entryY=0;entryDx=0;entryDy=0;entryPerimeter=0;" edge="1" parent="1" source="265" target="276">
                    <mxGeometry width="50" height="50" relative="1" as="geometry">
                        <mxPoint x="730" y="1780" as="sourcePoint"/>
                        <mxPoint x="780" y="1730" as="targetPoint"/>
                        <Array as="points">
                            <mxPoint x="750" y="1615"/>
                        </Array>
                    </mxGeometry>
                </mxCell>
                <mxCell id="281" value="" style="endArrow=classic;html=1;exitX=0;exitY=0.5;exitDx=0;exitDy=0;" edge="1" parent="1" source="258">
                    <mxGeometry width="50" height="50" relative="1" as="geometry">
                        <mxPoint x="730" y="1270" as="sourcePoint"/>
                        <mxPoint x="758" y="1220" as="targetPoint"/>
                        <Array as="points">
                            <mxPoint x="760" y="1180"/>
                        </Array>
                    </mxGeometry>
                </mxCell>
                <mxCell id="282" value="" style="endArrow=classic;html=1;exitX=0;exitY=0.5;exitDx=0;exitDy=0;entryX=0.5;entryY=0;entryDx=0;entryDy=0;entryPerimeter=0;" edge="1" parent="1" source="254" target="275">
                    <mxGeometry width="50" height="50" relative="1" as="geometry">
                        <mxPoint x="730" y="750" as="sourcePoint"/>
                        <mxPoint x="780" y="700" as="targetPoint"/>
                        <Array as="points">
                            <mxPoint x="760" y="690"/>
                        </Array>
                    </mxGeometry>
                </mxCell>
                <mxCell id="283" value="Yes" style="text;html=1;strokeColor=none;fillColor=none;align=center;verticalAlign=middle;whiteSpace=wrap;rounded=0;" vertex="1" parent="1">
                    <mxGeometry x="1030" y="2100" width="40" height="20" as="geometry"/>
                </mxCell>
                <mxCell id="284" value="Yes" style="text;html=1;strokeColor=none;fillColor=none;align=center;verticalAlign=middle;whiteSpace=wrap;rounded=0;" vertex="1" parent="1">
                    <mxGeometry x="1060" y="1585" width="40" height="20" as="geometry"/>
                </mxCell>
                <mxCell id="287" value="Yes" style="text;html=1;strokeColor=none;fillColor=none;align=center;verticalAlign=middle;whiteSpace=wrap;rounded=0;" vertex="1" parent="1">
                    <mxGeometry x="1040" y="1130" width="40" height="20" as="geometry"/>
                </mxCell>
                <mxCell id="288" value="Yes" style="text;html=1;strokeColor=none;fillColor=none;align=center;verticalAlign=middle;whiteSpace=wrap;rounded=0;" vertex="1" parent="1">
                    <mxGeometry x="1030" y="660" width="40" height="20" as="geometry"/>
                </mxCell>
                <mxCell id="289" value="No" style="text;html=1;strokeColor=none;fillColor=none;align=center;verticalAlign=middle;whiteSpace=wrap;rounded=0;" vertex="1" parent="1">
                    <mxGeometry x="1195" y="710" width="40" height="20" as="geometry"/>
                </mxCell>
                <mxCell id="291" value="No" style="text;html=1;strokeColor=none;fillColor=none;align=center;verticalAlign=middle;whiteSpace=wrap;rounded=0;" vertex="1" parent="1">
                    <mxGeometry x="1210.5" y="1160" width="40" height="20" as="geometry"/>
                </mxCell>
                <mxCell id="292" value="No" style="text;html=1;strokeColor=none;fillColor=none;align=center;verticalAlign=middle;whiteSpace=wrap;rounded=0;" vertex="1" parent="1">
                    <mxGeometry x="1216.5" y="1630" width="40" height="20" as="geometry"/>
                </mxCell>
                <mxCell id="293" value="No" style="text;html=1;strokeColor=none;fillColor=none;align=center;verticalAlign=middle;whiteSpace=wrap;rounded=0;" vertex="1" parent="1">
                    <mxGeometry x="1201" y="2150" width="40" height="20" as="geometry"/>
                </mxCell>
            </root>
        </mxGraphModel>
    </diagram>
</mxfile>